<svg height="512" viewBox="0 0 32 32" width="512" xmlns="http://www.w3.org/2000/svg" fill="#06bfbb"><g id="Layer_2" data-name="Layer 2"><path d="m15.74 31.06a9.69 9.69 0 0 1 -1.86-.18 10.73 10.73 0 0 1 -8.59-10.49c0-8.08 9.58-18.29 10-18.72l.71-.74.72.72c.42.41 10.21 10.21 10 19a9.9 9.9 0 0 1 -3.42 7.35 11.4 11.4 0 0 1 -7.56 3.06zm.26-27.23c-2.17 2.5-8.71 10.47-8.71 16.56a8.72 8.72 0 0 0 7 8.53 9 9 0 0 0 7.71-2.39 7.83 7.83 0 0 0 2.74-5.92c.12-6.61-6.49-14.36-8.74-16.78z"/><path d="m15 27.2a7.84 7.84 0 0 1 -6.27-7.67h2a5.84 5.84 0 0 0 4.66 5.71z"/></g></svg>